<svg width="62" height="40" viewBox="0 0 62 40" fill="none" xmlns="http://www.w3.org/2000/svg">
<path d="M43.5073 30.4893C41.9927 29.9492 39.5209 29.9127 38.4253 29.5033C37.5817 29.2838 36.7852 28.9126 36.0746 28.4077C35.7759 27.1491 35.6467 25.8563 35.6902 24.5635C36.2533 24.0231 36.7098 23.3815 37.0356 22.6722C37.3625 21.455 37.5793 20.2109 37.6834 18.9549C37.6834 18.9549 38.5752 19.3393 38.927 17.5499C39.2249 16.0122 39.7919 15.1992 39.6439 14.0632C39.4959 12.9273 38.8597 13.1983 38.8597 13.1983C39.5497 11.6082 39.8197 9.86761 39.6439 8.14324C39.6334 7.03344 39.3947 5.93767 38.9425 4.92412C38.4903 3.91058 37.8343 3.00094 37.0154 2.25182C36.1965 1.5027 35.2322 0.930134 34.1825 0.569746C33.1328 0.209358 32.0202 0.068862 30.9138 0.157003C29.8073 0.0688075 28.6944 0.208564 27.6441 0.567628C26.5937 0.926692 25.6282 1.49743 24.8072 2.24454C23.9863 2.99165 23.3273 3.89925 22.8711 4.9112C22.4149 5.92315 22.1711 7.01794 22.1549 8.12786C21.9809 9.85075 22.2454 11.5897 22.9237 13.1829C22.9237 13.1829 22.2895 12.9119 22.1395 14.0479C21.9896 15.1838 22.547 16.0084 22.8526 17.546C23.2044 19.3432 24.0962 18.9511 24.0962 18.9511C24.2014 20.207 24.4181 21.451 24.744 22.6684C25.0698 23.3776 25.5263 24.0192 26.0894 24.5597C26.1329 25.8525 26.0037 27.1453 25.705 28.4039C24.9965 28.9092 24.1989 29.2763 23.3543 29.486C22.2741 29.905 19.8004 29.9588 18.2723 30.4989C16.4299 31.1894 14.8461 32.4328 13.7381 34.0587C12.6301 35.6846 12.0521 37.6134 12.0832 39.5807H49.6829C49.7199 37.6128 49.1459 35.6818 48.0399 34.0536C46.9339 32.4254 45.3503 31.1802 43.5073 30.4893Z" fill="white"/>
<path d="M15.2475 23.9076C16.8353 23.8862 18.3903 23.4531 19.7605 22.6505C17.6655 19.4753 18.7995 15.7714 18.3689 12.3117C18.3478 11.5245 18.1637 10.7502 17.8284 10.0377C17.4931 9.3252 17.0139 8.68987 16.4208 8.17178C15.8278 7.65369 15.1339 7.26407 14.3828 7.0275C13.6317 6.79093 12.8397 6.71253 12.0568 6.79724H12.003C11.2247 6.72331 10.4396 6.8097 9.69598 7.05108C8.95239 7.29245 8.26617 7.68369 7.6797 8.20064C7.09323 8.71759 6.61894 9.34927 6.28614 10.0567C5.95334 10.7641 5.76907 11.5322 5.74473 12.3136C5.31227 15.7599 6.51356 19.8828 4.3666 22.6525C5.74107 23.4418 7.30907 23.8307 8.8931 23.775C8.97513 24.5338 8.92966 25.3011 8.75855 26.0449C8.29338 26.4324 7.73348 26.6892 7.13632 26.7888C5.9518 27.0451 4.78314 27.3698 3.63621 27.7613C2.71728 28.2416 1.94705 28.9638 1.40877 29.85C0.870483 30.7362 0.584607 31.7526 0.582031 32.7895H11.436C12.4226 31.0269 13.9343 29.6159 15.7607 28.7531C16.8191 28.3097 17.952 28.071 19.0993 28.0497C19.0993 28.0497 19.6125 27.2385 17.923 26.9272C17.0251 26.73 16.1539 26.4261 15.3282 26.0219C15.0707 25.7336 15.2475 23.9076 15.2475 23.9076Z" fill="white"/>
<path d="M46.599 23.9076C45.0112 23.8862 43.4561 23.4531 42.0859 22.6505C44.181 19.4753 43.047 15.7714 43.4775 12.3117C43.4987 11.5245 43.6827 10.7502 44.018 10.0377C44.3533 9.3252 44.8326 8.68987 45.4256 8.17178C46.0186 7.65369 46.7126 7.26407 47.4637 7.0275C48.2148 6.79093 49.0067 6.71253 49.7896 6.79724H49.8434C50.6217 6.72331 51.4069 6.8097 52.1505 7.05108C52.8941 7.29245 53.5803 7.68369 54.1668 8.20064C54.7532 8.71759 55.2275 9.34927 55.5603 10.0567C55.8931 10.7641 56.0774 11.5322 56.1017 12.3136C56.5342 15.7599 55.3329 19.8828 57.4799 22.6525C56.1054 23.4418 54.5374 23.8307 52.9534 23.775C52.8713 24.5338 52.9168 25.3011 53.0879 26.0449C53.5531 26.4324 54.113 26.6892 54.7101 26.7888C55.8947 27.0451 57.0633 27.3698 58.2102 27.7613C59.1292 28.2416 59.8994 28.9638 60.4377 29.85C60.976 30.7362 61.2619 31.7526 61.2644 32.7895H50.4105C49.4239 31.0269 47.9121 29.6159 46.0858 28.7531C45.0274 28.3097 43.8945 28.071 42.7471 28.0497C42.7471 28.0497 42.2339 27.2385 43.9234 26.9272C44.8214 26.73 45.6925 26.4261 46.5182 26.0219C46.7758 25.7336 46.599 23.9076 46.599 23.9076Z" fill="white"/>
</svg>
